<svg width="21" height="24" viewBox="0 0 21 24" fill="none" xmlns="http://www.w3.org/2000/svg">
<rect width="21" height="24" fill="#F2F2F2"/>
<g clip-path="url(#clip0_0_229)">
<rect width="1440" height="1024" transform="translate(-937 -224)" fill="#08070B"/>
<rect x="-937" y="-224" width="1440" height="1024" fill="url(#paint0_linear_0_229)"/>
<g clip-path="url(#clip1_0_229)">
<rect x="-487" y="-28" width="540" height="80" fill="#24232C"/>
<path fill-rule="evenodd" clip-rule="evenodd" d="M17.909 0.659016L20.341 3.09098C20.763 3.51294 21 4.08523 21 4.68197V17.25C21 18.4926 19.9926 19.5 18.75 19.5H15V21.75C15 22.9926 13.9926 24 12.75 24H2.25C1.00734 24 0 22.9926 0 21.75V6.75C0 5.50734 1.00734 4.5 2.25 4.5H6V2.25C6 1.00734 7.00734 0 8.25 0H16.3181C16.9147 3.12036e-06 17.4871 0.237058 17.909 0.659016ZM2.53126 21.75H12.4687C12.5434 21.75 12.6149 21.7204 12.6677 21.6677C12.7204 21.6149 12.75 21.5434 12.75 21.4687V19.5H8.25C7.00734 19.5 6 18.4926 6 17.25V6.75H2.53126C2.45665 6.75 2.38512 6.77963 2.33238 6.83238C2.27963 6.88512 2.25 6.95665 2.25 7.03126V21.4687C2.25 21.5434 2.27963 21.6149 2.33238 21.6677C2.38512 21.7204 2.45665 21.75 2.53126 21.75ZM18.4687 17.25H8.53126C8.45665 17.25 8.38512 17.2204 8.33238 17.1677C8.27963 17.1149 8.25 17.0434 8.25 16.9687V2.53126C8.25 2.45665 8.27963 2.38512 8.33238 2.33238C8.38512 2.27963 8.45665 2.25 8.53126 2.25H13.5V6.375C13.5 6.99632 14.0036 7.5 14.625 7.5H18.75V16.9687C18.75 17.0434 18.7204 17.1149 18.6677 17.1677C18.6149 17.2204 18.5434 17.25 18.4687 17.25ZM15.75 5.25H18.75V4.7985C18.75 4.76156 18.7427 4.72499 18.7286 4.69086C18.7145 4.65673 18.6937 4.62572 18.6677 4.59961L16.4004 2.33236C16.3476 2.27963 16.2761 2.25 16.2014 2.25H15.75V5.25Z" fill="white"/>
</g>
<g filter="url(#filter0_d_0_229)">
<mask id="path-4-outside-1_0_229" maskUnits="userSpaceOnUse" x="13" y="18" width="15" height="16" fill="black">
<rect fill="white" x="13" y="18" width="15" height="16"/>
<path fill-rule="evenodd" clip-rule="evenodd" d="M18.9998 33C18.9998 33 16.794 31.3013 16.018 30C15.242 28.6987 13.7715 27.041 14.0301 26C14.2888 24.959 15.242 24.6309 16.018 25.4117C16.794 26.1924 17.3167 27.8841 17.8341 27.6238C18.3514 27.3636 17.9634 24.8912 17.4461 23.4598C16.9287 22.0284 16.3894 19 17.4461 19C18.5028 19 18.5028 20 18.9998 21.5C19.4967 23 19.1087 25 19.4967 25C19.8847 25 20.0328 24.6506 20.0328 24C20.0328 23.8232 20.0672 23.6737 20.1372 23.5499C20.3247 23.2179 20.7671 23.0694 21.4846 23.0694C22.4698 23.0694 21.9815 25 22.4785 25C22.9755 25 22.9755 25.041 22.9755 24C22.9755 22.959 23.4363 23.0694 24.4302 23.0694C25.4241 23.0694 24.9429 25 25.4603 25C25.9776 25 25.4603 24 25.9572 24C26.4542 24 26.9512 24.1577 26.9512 26.5C26.9512 28.8423 27.2302 28.959 26.4542 30C25.6782 31.041 24.9633 32 24.9633 32C24.9633 32 24.9633 33 24.4302 33C23.8971 33 23.6221 32 22.9755 32C22.3288 32 21.9815 33 21.9815 33H18.9998ZM24.9633 31V27H23.9694V31H24.9633ZM21.9815 30C21.9815 30.2709 22.2121 31 22.4785 31C22.753 31 22.9755 30.2754 22.9755 30V28C22.9755 27.7291 22.7449 27 22.4785 27C22.204 27 21.9815 27.7246 21.9815 28V30ZM19.9937 30C19.9937 30.2709 20.2242 31 20.4906 31C20.7651 31 20.9876 30.2754 20.9876 30V28C20.9876 27.7291 20.7571 27 20.4906 27C20.2162 27 19.9937 27.7246 19.9937 28V30Z"/>
</mask>
<path fill-rule="evenodd" clip-rule="evenodd" d="M18.9998 33C18.9998 33 16.794 31.3013 16.018 30C15.242 28.6987 13.7715 27.041 14.0301 26C14.2888 24.959 15.242 24.6309 16.018 25.4117C16.794 26.1924 17.3167 27.8841 17.8341 27.6238C18.3514 27.3636 17.9634 24.8912 17.4461 23.4598C16.9287 22.0284 16.3894 19 17.4461 19C18.5028 19 18.5028 20 18.9998 21.5C19.4967 23 19.1087 25 19.4967 25C19.8847 25 20.0328 24.6506 20.0328 24C20.0328 23.8232 20.0672 23.6737 20.1372 23.5499C20.3247 23.2179 20.7671 23.0694 21.4846 23.0694C22.4698 23.0694 21.9815 25 22.4785 25C22.9755 25 22.9755 25.041 22.9755 24C22.9755 22.959 23.4363 23.0694 24.4302 23.0694C25.4241 23.0694 24.9429 25 25.4603 25C25.9776 25 25.4603 24 25.9572 24C26.4542 24 26.9512 24.1577 26.9512 26.5C26.9512 28.8423 27.2302 28.959 26.4542 30C25.6782 31.041 24.9633 32 24.9633 32C24.9633 32 24.9633 33 24.4302 33C23.8971 33 23.6221 32 22.9755 32C22.3288 32 21.9815 33 21.9815 33H18.9998ZM24.9633 31V27H23.9694V31H24.9633ZM21.9815 30C21.9815 30.2709 22.2121 31 22.4785 31C22.753 31 22.9755 30.2754 22.9755 30V28C22.9755 27.7291 22.7449 27 22.4785 27C22.204 27 21.9815 27.7246 21.9815 28V30ZM19.9937 30C19.9937 30.2709 20.2242 31 20.4906 31C20.7651 31 20.9876 30.2754 20.9876 30V28C20.9876 27.7291 20.7571 27 20.4906 27C20.2162 27 19.9937 27.7246 19.9937 28V30Z" fill="white"/>
<path d="M18.9998 33L18.3896 33.7923L18.6593 34H18.9998V33ZM14.0301 26L15.0006 26.2411L14.0301 26ZM16.018 25.4117L15.3087 26.1166L15.3087 26.1166L16.018 25.4117ZM17.8341 27.6238L17.3847 26.7305L17.3847 26.7305L17.8341 27.6238ZM17.4461 23.4598L18.3865 23.1199L17.4461 23.4598ZM17.4461 19V18H17.4461L17.4461 19ZM19.4967 25L19.4967 26H19.4967L19.4967 25ZM20.0328 24H19.0328H20.0328ZM20.1372 23.5499L19.2665 23.0581L20.1372 23.5499ZM21.4846 23.0694V22.0694V23.0694ZM22.4785 25V24V25ZM22.9755 24L21.9755 24L22.9755 24ZM24.4302 23.0694V22.0694V23.0694ZM25.4603 25V26V25ZM25.9572 24V23V24ZM26.9512 26.5L25.9512 26.5L26.9512 26.5ZM26.4542 30L27.256 30.5977L26.4542 30ZM24.9633 32L24.1616 31.4023L23.9633 31.6683V32H24.9633ZM24.4302 33V32V33ZM22.9755 32V31V32ZM21.9815 33V34H22.6929L22.9262 33.328L21.9815 33ZM24.9633 31V32H25.9633V31H24.9633ZM24.9633 27H25.9633V26H24.9633V27ZM23.9694 27V26H22.9694V27H23.9694ZM23.9694 31H22.9694V32H23.9694V31ZM18.9998 33C19.6099 32.2077 19.61 32.2078 19.61 32.2078C19.6101 32.2078 19.6101 32.2079 19.6101 32.2079C19.6102 32.2079 19.6102 32.2079 19.6101 32.2079C19.6101 32.2078 19.6099 32.2077 19.6096 32.2075C19.6089 32.207 19.6078 32.2061 19.6061 32.2048C19.6028 32.2022 19.5974 32.198 19.5901 32.1923C19.5756 32.181 19.5534 32.1636 19.5245 32.1407C19.4666 32.0948 19.3819 32.0269 19.2772 31.9411C19.0675 31.769 18.7804 31.5269 18.4712 31.2468C17.8255 30.662 17.1813 29.9983 16.8768 29.4878L15.1591 30.5122C15.6307 31.3029 16.4773 32.1393 17.1285 32.7291C17.4678 33.0364 17.7807 33.3003 18.0087 33.4874C18.123 33.5811 18.2167 33.6561 18.2824 33.7082C18.3153 33.7343 18.3413 33.7547 18.3594 33.7689C18.3685 33.7759 18.3756 33.7815 18.3807 33.7854C18.3832 33.7874 18.3853 33.7889 18.3867 33.7901C18.3875 33.7906 18.3881 33.7911 18.3886 33.7915C18.3888 33.7917 18.389 33.7918 18.3892 33.792C18.3893 33.792 18.3894 33.7921 18.3894 33.7921C18.3895 33.7922 18.3896 33.7923 18.9998 33ZM16.8768 29.4878C16.6639 29.1307 16.4079 28.7566 16.1686 28.4073C15.9219 28.0471 15.6892 27.708 15.4893 27.3809C15.2874 27.0507 15.1451 26.7741 15.0655 26.5486C14.9826 26.3135 15.003 26.2315 15.0006 26.2411L13.0596 25.7589C12.9279 26.289 13.0351 26.8046 13.1794 27.2138C13.3271 27.6325 13.5524 28.0469 13.7828 28.424C14.0151 28.804 14.2794 29.1884 14.5186 29.5375C14.7652 29.8975 14.9841 30.2187 15.1591 30.5122L16.8768 29.4878ZM15.0006 26.2411C15.069 25.966 15.1764 25.9622 15.1275 25.9774C15.1091 25.9832 15.1019 25.9773 15.1203 25.983C15.1427 25.9899 15.2108 26.0181 15.3087 26.1166L16.7272 24.7067C16.1424 24.1183 15.3374 23.8172 14.5326 24.0679C13.7485 24.3123 13.2499 24.993 13.0596 25.7589L15.0006 26.2411ZM15.3087 26.1166C15.584 26.3936 15.8176 26.8419 16.1652 27.4221C16.3068 27.6584 16.5012 27.9715 16.7333 28.2041C16.852 28.3231 17.0432 28.4863 17.3088 28.5793C17.6139 28.6861 17.9614 28.6792 18.2835 28.5171L17.3847 26.7305C17.5774 26.6335 17.7955 26.6306 17.9698 26.6917C18.1049 26.739 18.1642 26.8066 18.1491 26.7915C18.1134 26.7556 18.0316 26.6458 17.8809 26.3942C17.6437 25.9984 17.228 25.2105 16.7272 24.7067L15.3087 26.1166ZM18.2835 28.5171C18.6589 28.3283 18.8353 28.0024 18.9164 27.7983C19.0025 27.5817 19.0409 27.3552 19.0598 27.1615C19.0979 26.7692 19.0735 26.3111 19.0213 25.8648C18.9161 24.965 18.6733 23.9134 18.3865 23.1199L16.5056 23.7997C16.7362 24.4376 16.9461 25.3379 17.0349 26.0971C17.0797 26.4804 17.0876 26.7787 17.0692 26.9678C17.0597 27.0649 17.0476 27.0854 17.0579 27.0594C17.0633 27.0459 17.1386 26.8543 17.3847 26.7305L18.2835 28.5171ZM18.3865 23.1199C18.1556 22.481 17.9134 21.4562 17.8532 20.6213C17.8222 20.1901 17.848 19.9101 17.887 19.7773C17.9053 19.7151 17.9043 19.7641 17.8295 19.8391C17.7294 19.9395 17.5827 20 17.4461 20L17.4461 18C17.0453 18 16.6843 18.1552 16.4134 18.4268C16.1679 18.673 16.0397 18.9697 15.968 19.2138C15.8271 19.6936 15.822 20.2601 15.8584 20.765C15.9331 21.8021 16.2192 23.0072 16.5056 23.7997L18.3865 23.1199ZM17.4461 20C17.5432 20 17.5173 20.0191 17.465 19.9799C17.4303 19.9538 17.4569 19.9538 17.5188 20.0932C17.5831 20.238 17.6456 20.438 17.7339 20.7494C17.8166 21.0411 17.9175 21.413 18.0505 21.8145L19.949 21.1855C19.8335 20.837 19.7481 20.5214 19.658 20.2038C19.5735 19.9057 19.4767 19.5745 19.3468 19.2818C19.2145 18.9837 19.012 18.6399 18.6645 18.3795C18.2995 18.1059 17.8773 18 17.4461 18V20ZM18.0505 21.8145C18.2445 22.4 18.2753 23.1272 18.2893 23.8323C18.2955 24.1438 18.2988 24.5101 18.3327 24.7862C18.3487 24.9155 18.382 25.1325 18.4818 25.3418C18.5891 25.5665 18.8965 26 19.4967 26L19.4967 24C20 24 20.2346 24.371 20.2869 24.4805C20.3317 24.5745 20.3278 24.6235 20.3178 24.5419C20.2998 24.3962 20.2963 24.1687 20.2889 23.7927C20.2756 23.1228 20.252 22.1 19.949 21.1855L18.0505 21.8145ZM19.4967 26C19.7484 26 20.0218 25.9415 20.2754 25.7825C20.5273 25.6245 20.6946 25.4083 20.8022 25.1962C20.9981 24.8097 21.0328 24.3628 21.0328 24H19.0328C19.0328 24.128 19.0253 24.2159 19.0162 24.2722C19.0067 24.3315 18.9998 24.3283 19.0183 24.2918C19.0404 24.2483 19.098 24.1601 19.2129 24.088C19.3297 24.0148 19.439 24 19.4967 24L19.4967 26ZM21.0328 24C21.0328 23.9761 21.0352 23.9713 21.033 23.9807C21.0305 23.9912 21.0238 24.0136 21.008 24.0416L19.2665 23.0581C19.0929 23.3654 19.0328 23.6937 19.0328 24H21.0328ZM21.008 24.0416C20.9541 24.137 20.887 24.1485 20.9437 24.1286C21.0176 24.1026 21.1813 24.0694 21.4846 24.0694V22.0694C20.7465 22.0694 19.7515 22.1993 19.2665 23.0581L21.008 24.0416ZM21.4846 24.0694C21.4356 24.0694 21.3437 24.0546 21.248 23.9929C21.1594 23.9358 21.1202 23.8723 21.1114 23.8566C21.1049 23.8448 21.1152 23.8599 21.1307 23.9224C21.1458 23.9827 21.1595 24.0611 21.1731 24.1646C21.1913 24.3035 21.2244 24.6794 21.2751 24.9116C21.3028 25.0383 21.3611 25.2669 21.5083 25.4819C21.6883 25.7449 22.0176 26 22.4785 26V24C22.8152 24 23.051 24.1948 23.1587 24.3522C23.2336 24.4616 23.2409 24.5394 23.2291 24.4851C23.2008 24.3553 23.2012 24.2485 23.1562 23.9048C23.1238 23.6575 23.0608 23.2473 22.8598 22.8855C22.7506 22.6888 22.5839 22.4745 22.3315 22.3118C22.072 22.1446 21.7798 22.0694 21.4846 22.0694V24.0694ZM22.4785 26C22.5335 26 22.7579 26.0072 22.9408 25.9747C23.0589 25.9537 23.229 25.908 23.4021 25.7946C23.5857 25.6743 23.7157 25.5156 23.8012 25.3505C23.9413 25.0802 23.9586 24.7901 23.9662 24.6498C23.9758 24.4734 23.9755 24.2479 23.9755 24L21.9755 24C21.9755 24.2726 21.9751 24.4323 21.9692 24.541C21.9664 24.5926 21.9635 24.6055 21.9651 24.5964C21.9663 24.5898 21.9783 24.5213 22.0255 24.4303C22.08 24.3251 22.1711 24.2101 22.3062 24.1216C22.4307 24.04 22.5425 24.0142 22.5908 24.0056C22.6343 23.9978 22.656 23.9993 22.6234 23.9999C22.5884 24.0006 22.5581 24 22.4785 24V26ZM23.9755 24C23.9755 23.9045 23.9809 23.8443 23.9861 23.81C23.9913 23.7755 23.994 23.7818 23.9811 23.8118C23.9664 23.8458 23.9356 23.9005 23.8799 23.9561C23.8239 24.0119 23.766 24.0455 23.7237 24.0636C23.6861 24.0797 23.6683 24.0804 23.6879 24.0773C23.7077 24.0742 23.7465 24.0701 23.8159 24.0679C23.8851 24.0657 23.9668 24.0657 24.0732 24.0666C24.1737 24.0676 24.2999 24.0694 24.4302 24.0694V22.0694C24.2311 22.0694 23.9523 22.0624 23.7513 22.0689C23.5437 22.0756 23.2361 22.0968 22.9365 22.225C22.5811 22.3772 22.305 22.6483 22.1449 23.0191C22.0067 23.3392 21.9755 23.6872 21.9755 24L23.9755 24ZM24.4302 24.0694C24.384 24.0694 24.2951 24.0554 24.2018 23.9961C24.1152 23.941 24.0766 23.8797 24.0681 23.8647C24.0618 23.8537 24.0724 23.8693 24.0887 23.932C24.1045 23.9927 24.1191 24.0713 24.1339 24.1754C24.1541 24.3175 24.1912 24.6916 24.2481 24.9303C24.2792 25.0604 24.3435 25.2902 24.4988 25.5042C24.6879 25.7649 25.0166 26 25.4603 26V24C25.7746 24 26.0052 24.1747 26.1177 24.3299C26.1964 24.4383 26.2057 24.5173 26.1936 24.4663C26.1642 24.3431 26.1624 24.2346 26.114 23.894C26.079 23.6476 26.012 23.2378 25.8074 22.8774C25.6961 22.6814 25.5279 22.4693 25.2754 22.3086C25.0162 22.1437 24.7249 22.0694 24.4302 22.0694V24.0694ZM25.4603 26C25.6903 26 25.9643 25.9418 26.2111 25.7561C26.4524 25.5744 26.5728 25.3421 26.6326 25.1669C26.6899 24.9994 26.7057 24.8444 26.7119 24.7463C26.7182 24.6455 26.7169 24.5471 26.7163 24.4898C26.7156 24.418 26.7156 24.3895 26.7167 24.3683C26.7179 24.3449 26.7186 24.3863 26.6967 24.4561C26.673 24.5315 26.6064 24.6909 26.4364 24.826C26.2571 24.9685 26.0689 25 25.9572 25V23C25.7213 23 25.4406 23.0628 25.1925 23.2599C24.9536 23.4497 24.8419 23.6873 24.7887 23.8564C24.7373 24.0199 24.7242 24.1707 24.7194 24.2645C24.7144 24.3605 24.7159 24.457 24.7165 24.5102C24.7171 24.5779 24.7168 24.6045 24.7158 24.6209C24.7146 24.64 24.7147 24.5944 24.74 24.5206C24.7678 24.4391 24.8398 24.2849 25.0085 24.158C25.1826 24.027 25.3596 24 25.4603 24V26ZM25.9572 25C26.0418 25 25.9964 25.0105 25.9186 24.9762C25.8128 24.9295 25.7676 24.8594 25.7684 24.8609C25.7818 24.8847 25.8336 24.9959 25.878 25.2772C25.9214 25.5522 25.9512 25.9452 25.9512 26.5L27.9512 26.5C27.9512 25.3195 27.8369 24.4603 27.5127 23.8824C27.3272 23.5517 27.0645 23.2957 26.7258 23.1463C26.4151 23.0092 26.1211 23 25.9572 23V25ZM25.9512 26.5C25.9512 27.1063 25.9693 27.5692 25.9834 27.928C25.9982 28.3031 26.0054 28.5128 25.9955 28.6778C25.9873 28.8141 25.9687 28.8826 25.9398 28.95C25.9029 29.0364 25.8294 29.165 25.6525 29.4023L27.256 30.5977C27.467 30.3145 27.6497 30.0381 27.7786 29.7367C27.9157 29.4162 27.9729 29.1139 27.9919 28.7981C28.0092 28.5111 27.9952 28.1873 27.9819 27.8493C27.9679 27.4949 27.9512 27.0648 27.9512 26.5L25.9512 26.5ZM25.6525 29.4023C25.2644 29.9228 24.8917 30.4228 24.616 30.7927C24.4781 30.9777 24.3645 31.1301 24.2854 31.2362C24.2458 31.2893 24.2149 31.3308 24.1938 31.3591C24.1833 31.3732 24.1752 31.384 24.1698 31.3913C24.1671 31.395 24.165 31.3977 24.1636 31.3996C24.1629 31.4005 24.1624 31.4012 24.1621 31.4016C24.1619 31.4019 24.1618 31.402 24.1617 31.4022C24.1617 31.4022 24.1616 31.4023 24.1616 31.4023C24.1616 31.4023 24.1616 31.4023 24.1616 31.4023C24.1616 31.4023 24.1616 31.4023 24.9633 32C25.7651 32.5977 25.7651 32.5977 25.7651 32.5976C25.7651 32.5976 25.7651 32.5976 25.7651 32.5976C25.7651 32.5976 25.7652 32.5975 25.7652 32.5975C25.7653 32.5974 25.7654 32.5972 25.7656 32.597C25.7659 32.5965 25.7664 32.5958 25.7671 32.5949C25.7685 32.593 25.7706 32.5903 25.7733 32.5866C25.7787 32.5794 25.7868 32.5685 25.7973 32.5544C25.8184 32.5262 25.8493 32.4846 25.8889 32.4316C25.968 32.3254 26.0816 32.173 26.2195 31.988C26.4952 31.6182 26.8679 31.1182 27.256 30.5977L25.6525 29.4023ZM24.9633 32C23.9633 32 23.9633 31.9997 23.9633 31.9995C23.9633 31.9994 23.9633 31.9992 23.9633 31.999C23.9633 31.9987 23.9633 31.9984 23.9633 31.9981C23.9633 31.9975 23.9633 31.997 23.9633 31.9965C23.9633 31.9955 23.9633 31.9948 23.9633 31.9943C23.9633 31.9932 23.9633 31.993 23.9633 31.9935C23.9633 31.9945 23.9632 31.9985 23.963 32.0049C23.9625 32.0181 23.9614 32.0401 23.9589 32.0677C23.9536 32.1277 23.944 32.1916 23.9304 32.2424C23.9134 32.3063 23.9088 32.28 23.9574 32.2192C23.9871 32.1821 24.0434 32.1241 24.1338 32.0756C24.2292 32.0245 24.3333 32 24.4302 32V34C24.9292 34 25.297 33.7464 25.5194 33.4683C25.718 33.22 25.8133 32.9437 25.8629 32.7576C25.916 32.5584 25.9397 32.3723 25.9511 32.2448C25.9569 32.1787 25.96 32.1226 25.9615 32.081C25.9623 32.0601 25.9628 32.0426 25.963 32.029C25.9631 32.0222 25.9632 32.0163 25.9633 32.0115C25.9633 32.009 25.9633 32.0069 25.9633 32.005C25.9633 32.004 25.9633 32.0031 25.9633 32.0023C25.9633 32.0019 25.9633 32.0015 25.9633 32.0011C25.9633 32.0009 25.9633 32.0006 25.9633 32.0005C25.9633 32.0003 25.9633 32 24.9633 32ZM24.4302 32C24.6321 32 24.7383 32.1002 24.7147 32.0802C24.6785 32.0496 24.6349 31.9997 24.5018 31.8459C24.3985 31.7265 24.2228 31.5229 24.0005 31.3561C23.7609 31.1766 23.4167 31 22.9755 31V33C22.8576 33 22.7902 32.9484 22.8008 32.9564C22.8285 32.9771 22.8761 33.0235 22.9891 33.1541C23.0722 33.2503 23.2377 33.4504 23.4232 33.6073C23.6213 33.7748 23.9618 34 24.4302 34V32ZM22.9755 31C22.1149 31 21.6053 31.645 21.4054 31.943C21.2824 32.1265 21.1933 32.3029 21.1357 32.4296C21.1062 32.4943 21.0834 32.5496 21.0672 32.5909C21.059 32.6117 21.0524 32.6291 21.0474 32.6427C21.0448 32.6496 21.0427 32.6555 21.041 32.6603C21.0401 32.6628 21.0393 32.665 21.0386 32.6669C21.0383 32.6679 21.038 32.6688 21.0377 32.6696C21.0375 32.6701 21.0374 32.6705 21.0373 32.6709C21.0372 32.671 21.0371 32.6713 21.0371 32.6714C21.037 32.6717 21.0369 32.672 21.9815 33C22.9262 33.328 22.9261 33.3283 22.926 33.3286C22.926 33.3286 22.9259 33.3289 22.9258 33.3291C22.9257 33.3294 22.9256 33.3297 22.9255 33.33C22.9253 33.3306 22.9251 33.3311 22.9249 33.3316C22.9246 33.3326 22.9243 33.3334 22.9241 33.3339C22.9237 33.335 22.9236 33.3353 22.9238 33.3348C22.9242 33.3338 22.9257 33.3298 22.9283 33.3232C22.9335 33.3098 22.9429 33.2869 22.9561 33.2579C22.9838 33.1971 23.0219 33.1235 23.0665 33.057C23.0883 33.0245 23.1082 32.9988 23.1252 32.9796C23.1425 32.9601 23.152 32.9527 23.152 32.9527C23.1505 32.9539 23.0865 33 22.9755 33V31ZM21.9815 32H18.9998V34H21.9815V32ZM25.9633 31V27H23.9633V31H25.9633ZM24.9633 26H23.9694V28H24.9633V26ZM22.9694 27V31H24.9694V27H22.9694ZM23.9694 32H24.9633V30H23.9694V32ZM20.9815 30C20.9815 30.3159 21.088 30.7033 21.2084 30.9894C21.2725 31.1419 21.37 31.3375 21.5129 31.5131C21.6268 31.6531 21.948 32 22.4785 32V30C22.6815 30 22.8341 30.0708 22.9218 30.1272C23.0053 30.1809 23.0504 30.2338 23.064 30.2506C23.0888 30.281 23.0786 30.2774 23.0518 30.2138C23.029 30.1594 23.0079 30.0943 22.9936 30.0352C22.9867 30.0066 22.9829 29.9856 22.9811 29.9736C22.9788 29.9583 22.9815 29.9691 22.9815 30H20.9815ZM22.4785 32C23.0006 32 23.3216 31.6667 23.444 31.518C23.5904 31.3402 23.6887 31.1421 23.7528 30.9883C23.8744 30.6969 23.9755 30.3121 23.9755 30H21.9755C21.9755 29.9599 21.9797 29.9727 21.9631 30.043C21.9492 30.102 21.9289 30.1658 21.907 30.2183C21.8812 30.2801 21.8724 30.2803 21.8999 30.247C21.9151 30.2284 21.9616 30.1751 22.0462 30.1219C22.1356 30.0656 22.2843 30 22.4785 30V32ZM23.9755 30V28H21.9755V30H23.9755ZM23.9755 28C23.9755 27.6841 23.869 27.2967 23.7486 27.0106C23.6845 26.8581 23.587 26.6625 23.4441 26.4869C23.3302 26.3469 23.009 26 22.4785 26V28C22.2755 28 22.1229 27.9292 22.0352 27.8728C21.9517 27.8191 21.9066 27.7662 21.893 27.7494C21.8682 27.719 21.8784 27.7226 21.9052 27.7862C21.928 27.8406 21.9491 27.9057 21.9634 27.9648C21.9703 27.9934 21.9741 28.0144 21.9759 28.0264C21.9782 28.0417 21.9755 28.0309 21.9755 28H23.9755ZM22.4785 26C21.9564 26 21.6354 26.3333 21.513 26.482C21.3666 26.6598 21.2683 26.8579 21.2042 27.0117C21.0826 27.3031 20.9815 27.6879 20.9815 28H22.9815C22.9815 28.0401 22.9773 28.0273 22.9939 27.957C23.0078 27.898 23.0281 27.8342 23.05 27.7817C23.0758 27.7199 23.0846 27.7197 23.0571 27.753C23.0419 27.7716 22.9954 27.8249 22.9108 27.8781C22.8214 27.9344 22.6726 28 22.4785 28V26ZM20.9815 28V30H22.9815V28H20.9815ZM18.9937 30C18.9937 30.3159 19.1001 30.7033 19.2205 30.9894C19.2847 31.1419 19.3821 31.3375 19.525 31.5131C19.639 31.6531 19.9601 32 20.4906 32V30C20.6937 30 20.8463 30.0708 20.934 30.1272C21.0174 30.1809 21.0625 30.2338 21.0762 30.2506C21.1009 30.281 21.0908 30.2774 21.064 30.2138C21.0411 30.1594 21.0201 30.0943 21.0058 30.0352C20.9989 30.0066 20.995 29.9856 20.9932 29.9736C20.9909 29.9583 20.9937 29.9691 20.9937 30H18.9937ZM20.4906 32C21.0127 32 21.3337 31.6667 21.4562 31.518C21.6025 31.3402 21.7008 31.1421 21.765 30.9883C21.8865 30.6969 21.9876 30.3121 21.9876 30H19.9876C19.9876 29.9599 19.9918 29.9727 19.9752 30.043C19.9613 30.102 19.941 30.1658 19.9191 30.2183C19.8934 30.2801 19.8846 30.2803 19.912 30.247C19.9273 30.2284 19.9737 30.1751 20.0583 30.1219C20.1478 30.0656 20.2965 30 20.4906 30V32ZM21.9876 30V28H19.9876V30H21.9876ZM21.9876 28C21.9876 27.6841 21.8812 27.2967 21.7608 27.0106C21.6966 26.8581 21.5992 26.6625 21.4563 26.4869C21.3423 26.3469 21.0211 26 20.4906 26V28C20.2876 28 20.135 27.9292 20.0473 27.8728C19.9639 27.8191 19.9188 27.7662 19.9051 27.7494C19.8804 27.719 19.8905 27.7226 19.9173 27.7862C19.9402 27.8406 19.9612 27.9057 19.9755 27.9648C19.9824 27.9934 19.9863 28.0144 19.9881 28.0264C19.9903 28.0417 19.9876 28.0309 19.9876 28H21.9876ZM20.4906 26C19.9686 26 19.6476 26.3333 19.5251 26.482C19.3788 26.6598 19.2805 26.8579 19.2163 27.0117C19.0948 27.3031 18.9937 27.6879 18.9937 28H20.9937C20.9937 28.0401 20.9895 28.0273 21.006 27.957C21.02 27.898 21.0403 27.8342 21.0621 27.7817C21.0879 27.7199 21.0967 27.7197 21.0693 27.753C21.054 27.7716 21.0076 27.8249 20.923 27.8781C20.8335 27.9344 20.6848 28 20.4906 28V26ZM18.9937 28V30H20.9937V28H18.9937Z" fill="black" mask="url(#path-4-outside-1_0_229)"/>
</g>
</g>
<defs>
<filter id="filter0_d_0_229" x="11" y="17" width="19" height="20" filterUnits="userSpaceOnUse" color-interpolation-filters="sRGB">
<feFlood flood-opacity="0" result="BackgroundImageFix"/>
<feColorMatrix in="SourceAlpha" type="matrix" values="0 0 0 0 0 0 0 0 0 0 0 0 0 0 0 0 0 0 127 0" result="hardAlpha"/>
<feOffset dy="1"/>
<feGaussianBlur stdDeviation="1"/>
<feColorMatrix type="matrix" values="0 0 0 0 0 0 0 0 0 0 0 0 0 0 0 0 0 0 1 0"/>
<feBlend mode="normal" in2="BackgroundImageFix" result="effect1_dropShadow_0_229"/>
<feBlend mode="normal" in="SourceGraphic" in2="effect1_dropShadow_0_229" result="shape"/>
</filter>
<linearGradient id="paint0_linear_0_229" x1="-937" y1="-224" x2="-937" y2="800" gradientUnits="userSpaceOnUse">
<stop stop-color="#14131B"/>
<stop offset="1" stop-color="#08070B"/>
</linearGradient>
<clipPath id="clip0_0_229">
<rect width="1440" height="1024" fill="white" transform="translate(-937 -224)"/>
</clipPath>
<clipPath id="clip1_0_229">
<rect width="540" height="80" fill="white" transform="translate(-487 -28)"/>
</clipPath>
</defs>
</svg>
